<?xml version="1.0" standalone="no"?>
<!DOCTYPE svg PUBLIC "-//W3C//DTD SVG 20010904//EN"
 "http://www.w3.org/TR/2001/REC-SVG-20010904/DTD/svg10.dtd">
<svg version="1.0" xmlns="http://www.w3.org/2000/svg"
 width="2119.000000pt" height="1414.000000pt" viewBox="0 0 2119.000000 1414.000000"
 preserveAspectRatio="xMidYMid meet">

<g transform="translate(0.000000,1414.000000) scale(0.100000,-0.100000)"
fill="#f1dcc9" stroke="none">
<path d="M8285 12274 c-184 -8 -559 -35 -685 -50 -985 -111 -2823 -531 -4885
-1116 l-321 -90 -94 -172 c-346 -630 -341 -618 -317 -614 12 3 175 50 362 106
2271 673 4367 1148 5520 1252 66 6 140 13 165 15 161 17 635 25 969 15 1419
-40 3076 -219 4351 -471 479 -94 775 -162 2000 -459 1115 -270 1704 -377 2645
-479 266 -29 825 -74 831 -67 1 0 -25 159 -57 351 -32 193 -59 353 -59 356 0
3 -118 9 -262 12 -611 15 -1215 79 -1808 193 -404 77 -623 129 -1915 453 -806
201 -1063 262 -1425 335 -1041 210 -2105 343 -3305 412 -251 15 -1486 27
-1710 18z"/>
<path d="M9100 10669 c-803 -46 -2586 -452 -5637 -1285 -150 -40 -327 -83
-395 -94 -259 -42 -609 -47 -960 -14 l-67 7 -5 -34 c-9 -61 -38 -830 -32 -837
10 -10 221 -20 426 -21 278 -1 765 -54 990 -107 252 -59 761 -253 1010 -385
395 -210 693 -521 765 -800 46 -176 58 -565 30 -972 -15 -217 -25 -283 -90
-572 -53 -239 -60 -290 -59 -455 1 -183 19 -265 86 -400 32 -63 62 -104 118
-161 173 -174 455 -325 1355 -724 788 -349 1067 -494 1235 -644 226 -202 374
-340 1005 -947 270 -259 538 -514 597 -566 100 -89 191 -158 209 -158 11 0
-12 63 -51 141 -173 342 -638 1122 -1963 3294 -773 1267 -1150 1906 -1133
1922 3 3 24 -8 48 -25 139 -94 737 -419 1343 -729 2069 -1057 4485 -2152 4934
-2235 30 -5 181 -54 335 -108 864 -301 1337 -410 2051 -470 529 -45 1294 -63
1671 -41 550 33 953 100 1361 227 503 156 875 371 1182 684 90 91 274 313 308
370 56 94 121 307 154 499 18 108 21 152 16 311 -13 474 -127 905 -301 1137
-160 212 -455 357 -851 418 -229 35 -657 28 -819 -14 -246 -64 -413 -228 -477
-468 -29 -109 -32 -334 -6 -410 48 -139 199 -310 352 -400 187 -111 363 -158
565 -150 214 8 351 54 626 213 61 35 120 64 131 64 48 0 100 -149 89 -254 -23
-205 -146 -457 -300 -610 -114 -114 -572 -400 -795 -496 -265 -115 -589 -190
-967 -224 -302 -28 -810 -16 -1094 24 -864 124 -1505 262 -2073 446 -97 32
-242 95 -485 211 -691 330 -1357 645 -1812 858 -85 40 -231 109 -324 154 -92
44 -169 81 -171 81 -5 0 -398 191 -580 282 -217 109 -255 130 -255 141 0 4 60
7 134 7 158 0 341 17 686 65 140 20 343 42 450 50 812 61 1511 165 2330 346
904 200 1460 379 2355 759 760 323 958 400 1031 400 72 0 1323 116 1330 123 1
1 9 175 18 387 9 212 18 426 22 476 l6 91 -299 6 c-567 13 -1118 70 -1743 183
-1360 243 -1751 337 -2610 624 -600 201 -759 243 -1610 425 -1151 246 -1891
351 -2710 385 -273 11 -478 11 -680 -1z m-1097 -1171 c86 -90 134 -150 178
-223 252 -420 726 -744 1294 -884 436 -107 926 -102 1383 14 496 125 907 386
1130 717 66 97 104 130 247 212 l119 69 256 -48 c1024 -191 1225 -245 1955
-527 589 -227 809 -300 1121 -370 79 -18 140 -35 136 -39 -18 -15 -902 -337
-1427 -519 -1024 -356 -1829 -557 -2405 -599 -422 -32 -1695 -38 -2105 -12
-970 64 -1707 199 -2366 435 -360 128 -957 370 -1319 534 -494 223 -1187 577
-1159 592 8 4 111 35 229 68 118 34 447 127 730 207 713 203 968 272 1390 376
201 49 388 96 415 103 28 8 57 14 65 15 8 1 68 -54 133 -121z"/>
</g>
</svg>
