<?xml version="1.0" standalone="no"?>
<!DOCTYPE svg PUBLIC "-//W3C//DTD SVG 20010904//EN"
 "http://www.w3.org/TR/2001/REC-SVG-20010904/DTD/svg10.dtd">
<svg version="1.0" xmlns="http://www.w3.org/2000/svg"
 width="2119.000000pt" height="1414.000000pt" viewBox="0 0 2119.000000 1414.000000"
 preserveAspectRatio="xMidYMid meet">

<g transform="translate(0.000000,1414.000000) scale(0.100000,-0.100000)"
fill="#f1dcc9" stroke="none">
<path d="M11610 12274 c-30 -2 -165 -8 -300 -14 -1126 -50 -2337 -198 -3420
-416 -362 -73 -619 -134 -1425 -335 -1291 -324 -1520 -378 -1915 -453 -597
-114 -1198 -178 -1807 -193 -145 -3 -263 -9 -263 -12 0 -3 -27 -163 -59 -356
-32 -192 -58 -351 -57 -351 2 -3 285 16 466 31 681 58 1429 167 2078 301 292
60 449 97 1246 290 1390 337 1917 444 2824 573 1381 198 2976 314 3858 281
154 -5 299 -12 324 -15 25 -2 99 -9 165 -15 1152 -104 3254 -580 5520 -1252
187 -55 350 -103 362 -106 24 -4 29 -16 -317 614 l-94 172 -321 90 c-2062 585
-3902 1005 -4885 1116 -343 39 -565 48 -1250 51 -371 1 -700 1 -730 -1z"/>
<path d="M11370 10669 c-772 -33 -1550 -145 -2675 -386 -871 -186 -996 -219
-1605 -423 -859 -287 -1250 -381 -2610 -624 -625 -113 -1176 -170 -1743 -183
l-299 -6 6 -91 c4 -50 13 -264 22 -476 9 -212 17 -386 18 -387 7 -7 1258 -123
1330 -123 73 0 271 -77 1031 -400 441 -187 818 -333 1105 -426 560 -183 1409
-385 2095 -498 582 -97 927 -139 1485 -181 107 -8 310 -30 450 -50 345 -48
528 -65 686 -65 74 0 134 -3 134 -7 0 -11 -38 -32 -255 -141 -182 -91 -575
-282 -580 -282 -2 0 -79 -37 -171 -81 -93 -45 -239 -114 -324 -154 -455 -213
-1121 -528 -1812 -858 -243 -116 -388 -179 -485 -211 -568 -184 -1209 -322
-2073 -446 -284 -40 -792 -52 -1094 -24 -378 34 -702 109 -967 224 -223 96
-681 382 -795 496 -154 153 -277 405 -300 610 -11 105 41 254 89 254 11 0 70
-29 131 -64 275 -159 412 -205 626 -213 202 -8 378 39 565 150 153 90 304 261
352 400 26 75 23 301 -6 410 -63 240 -230 404 -477 468 -162 42 -590 49 -819
14 -396 -61 -691 -206 -851 -418 -174 -232 -288 -663 -301 -1137 -5 -159 -2
-203 16 -311 33 -192 98 -405 154 -499 65 -110 320 -395 463 -516 464 -397
1168 -651 2044 -738 519 -52 1295 -47 2015 14 714 60 1187 169 2051 470 154
54 305 103 335 108 449 83 2865 1178 4934 2235 606 310 1204 635 1343 729 24
17 45 28 48 25 17 -16 -360 -655 -1133 -1922 -1325 -2172 -1790 -2952 -1963
-3294 -39 -78 -62 -141 -51 -141 18 0 109 69 209 158 59 52 328 307 597 566
631 607 779 745 1005 947 168 150 447 295 1235 644 900 399 1182 550 1355 724
87 87 147 195 182 326 18 66 21 108 22 240 0 169 -10 240 -64 475 -76 328
-100 569 -100 995 1 426 38 599 168 780 191 267 461 473 842 640 264 117 631
247 810 289 225 53 712 106 990 107 205 1 416 11 426 21 6 7 -23 776 -32 837
l-5 34 -67 -7 c-351 -33 -701 -28 -960 14 -68 11 -245 54 -395 94 -2729 745
-4385 1135 -5329 1256 -301 38 -602 47 -1028 29z m2054 -1075 c503 -119 972
-243 1766 -469 283 -80 612 -173 730 -207 118 -33 221 -64 229 -68 28 -15
-665 -369 -1159 -592 -362 -164 -959 -406 -1319 -534 -659 -236 -1396 -371
-2366 -435 -410 -26 -1683 -20 -2105 12 -576 42 -1381 243 -2405 599 -525 182
-1409 504 -1427 519 -4 4 57 21 136 39 284 64 569 155 956 307 858 336 1060
392 2120 590 l256 48 119 -69 c143 -82 181 -115 247 -212 270 -400 786 -681
1428 -777 265 -40 623 -39 870 1 660 108 1224 454 1507 926 41 69 93 133 178
222 65 69 121 126 124 126 2 0 54 -12 115 -26z"/>
</g>
</svg>
